<?xml version="1.0" encoding="UTF-8" standalone="no"?>
<!-- Created with Inkscape (http://www.inkscape.org/) -->

<svg
   xmlns:dc="http://purl.org/dc/elements/1.1/"
   xmlns:cc="http://creativecommons.org/ns#"
   xmlns:rdf="http://www.w3.org/1999/02/22-rdf-syntax-ns#"
   xmlns:svg="http://www.w3.org/2000/svg"
   xmlns="http://www.w3.org/2000/svg"
   version="1.1"
   width="886.66376"
   height="184.31375"
   id="svg3004"
   xml:space="preserve"><metadata
     id="metadata3010"><rdf:RDF><cc:Work
         rdf:about=""><dc:format>image/svg+xml</dc:format><dc:type
           rdf:resource="http://purl.org/dc/dcmitype/StillImage" /><dc:title></dc:title></cc:Work></rdf:RDF></metadata><defs
     id="defs3008" /><g
     transform="matrix(0,1.25,1.25,0,-278.7551,-195.88567)"
     id="g3012"><g
       transform="translate(-61.29146,179.00408)"
       id="g3038"><path
         d="m 319.752,52 c 0,9.028 -1.602,11.647 -14.271,12.523 l -53.573,3.492 c -12.954,0.875 -14.85,-0.725 -14.85,-9.168 l -3.923,0 0,26.934 67.399,31.436 -67.399,29.699 0,26.94 3.923,0 c 0,-8.155 1.749,-9.903 8.446,-9.323 l 66.234,5.24 c 7.428,0.58 8.014,3.348 8.014,11.937 l 3.924,0 0,-41.342 -3.924,0 c 0,11.935 -2.912,13.978 -18.348,12.811 l -53.719,-3.929 0,-0.293 75.991,-33.626 0,-4.955 -74.087,-34.205 0,-0.301 53.85,-3.487 c 15.581,-1.02 15.581,2.327 16.313,11.935 l 3.924,0 0,-32.318 -3.924,0"
         id="path3018"
         style="fill:#005596;fill-opacity:1;fill-rule:nonzero;stroke:none" /><path
         d="m 268.076,185.49 -6.12,21.991 0,3.2 46.144,0 c 9.61,0 11.945,2.041 11.945,10.621 l 3.631,0 0,-35.812 -3.631,0 c 0.287,8.155 -2.481,11.362 -10.34,11.362 l -32.605,0 c -3.068,0 -4.37,-0.294 -5.826,-11.362 l -3.198,0 z m -38.723,17.47 c 0,5.24 3.051,8.889 7.567,8.889 4.653,0 7.859,-3.788 7.859,-9.323 0,-5.24 -3.059,-8.881 -7.721,-8.881 -4.654,0 -7.705,3.641 -7.705,9.315"
         id="path3020"
         style="fill:#005596;fill-opacity:1;fill-rule:nonzero;stroke:none" /><path
         d="m 315.961,272.544 c 5.973,-8.881 9.317,-15.723 9.317,-24.163 0,-12.809 -12.368,-22.996 -28.244,-22.996 -19.064,0 -33.482,14.987 -33.482,34.645 0,4.075 0.585,8.58 1.603,12.514 l -21.392,0 c -5.103,0 -8.153,-1.893 -8.006,-9.608 l -3.646,0 -6.111,19.797 0,3.641 83.126,0 c 3.344,0 4.654,1.161 4.654,4.072 0,0.296 -0.293,3.209 -1.163,5.682 l 3.344,0 9.471,-19.943 0,-3.641 -9.471,0 z m -35.81,0 c -7.568,-5.533 -10.774,-10.334 -10.774,-16.448 0,-9.903 8.739,-16.164 22.417,-16.164 15.143,0 25.623,6.849 25.623,17.036 0,4.368 -1.309,8.009 -5.679,15.576 l -31.587,0"
         id="path3022"
         style="fill:#005596;fill-opacity:1;fill-rule:nonzero;stroke:none" /><path
         d="m 315.961,346.932 c 5.973,-8.883 9.317,-15.724 9.317,-24.165 0,-12.81 -12.368,-23.006 -28.244,-23.006 -19.064,0 -33.482,14.997 -33.482,34.647 0,4.081 0.585,8.595 1.603,12.524 l -21.392,0 c -5.103,0 -8.153,-1.895 -8.006,-9.611 l -3.646,0 -6.111,19.806 0,3.632 83.126,0 c 3.344,0 4.654,1.17 4.654,4.075 0,0.293 -0.293,3.202 -1.163,5.684 l 3.344,0 9.471,-19.945 0,-3.641 -9.471,0 z m -35.81,0 c -7.568,-5.528 -10.774,-10.336 -10.774,-16.452 0,-9.894 8.739,-16.155 22.417,-16.155 15.143,0 25.623,6.84 25.623,17.03 0,4.359 -1.309,8.015 -5.679,15.577 l -31.587,0"
         id="path3024"
         style="fill:#005596;fill-opacity:1;fill-rule:nonzero;stroke:none" /><path
         d="M 232.111,375.029 226,395.84 l 0,4.228 83.265,0 c 8.299,0 10.78,2.179 10.78,11.066 l 3.631,0 0,-36.105 -3.631,0 c 0,9.163 -2.921,11.214 -11.798,11.214 l -63.321,0 c -6.704,0 -8.307,-0.583 -9.169,-11.214 l -3.646,0"
         id="path3026"
         style="fill:#005596;fill-opacity:1;fill-rule:nonzero;stroke:none" /><path
         d="m 309.265,467.327 c 10.92,-7.291 16.013,-16.897 16.013,-29.558 0,-20.379 -15.72,-27.08 -29.26,-27.08 -18.918,0 -32.466,12.667 -32.466,30.136 0,7.868 2.628,14.117 6.55,18.048 6.697,6.7 13.539,4.079 15.729,9.173 l 4.076,0 0,-43.527 c 16.16,0 26.933,8.884 26.933,21.692 0,6.266 -3.353,12.229 -10.187,18.341 l 2.612,2.775 z m -23.434,-16.022 c -12.084,-1.163 -18.341,-5.533 -18.341,-12.955 0,-7.708 6.111,-12.376 18.341,-13.831 l 0,26.786"
         id="path3028"
         style="fill:#005596;fill-opacity:1;fill-rule:nonzero;stroke:none" /><path
         d="m 243.03,476.781 c -4.946,0 -7.273,-2.181 -7.273,-9.61 l -3.646,0 -6.111,19.22 0,4.226 47.462,0 c -7.721,11.494 -9.91,16.735 -9.91,23 0,13.385 12.53,23.87 28.389,23.87 16.599,0 33.337,-11.495 33.337,-38.573 0,-3.357 -0.286,-6.697 -0.579,-10.48 -0.293,-3.645 -0.877,-7.422 -1.602,-11.653 l -80.067,0 z m 56.925,13.836 c 11.499,0 20.67,2.173 20.67,14.55 0,10.931 -9.171,17.763 -23.005,17.763 -13.539,0 -25.037,-6.261 -25.037,-17.323 0,-4.228 1.449,-8.149 5.818,-14.99 l 21.554,0"
         id="path3030"
         style="fill:#005596;fill-opacity:1;fill-rule:nonzero;stroke:none" /><path
         d="m 325.278,595.129 0,-3.349 -11.059,0 c 8.594,-13.101 11.059,-18.923 11.059,-25.477 0,-10.617 -7.568,-15.566 -18.771,-15.566 l -25.916,0 c -7.422,0 -7.715,-0.296 -9.464,-9.031 l -3.198,0 -4.377,19.22 0,3.635 39.015,0 c 7.868,0 13.834,2.763 13.834,11.213 0,4.072 -2.035,8.447 -7.275,16.006 l -29.846,0 c -6.111,0 -7.42,-0.863 -8.739,-12.522 l -3.491,0 -3.498,22.718 0,3.638 46.3,0 c 5.972,0 6.988,0.576 6.988,3.635 0,1.465 -0.293,3.065 -0.879,6.119 l 3.645,0 5.672,-20.239"
         id="path3032"
         style="fill:#005596;fill-opacity:1;fill-rule:nonzero;stroke:none" /><path
         d="m 272.876,621.187 -2.921,0 -6.403,19.944 0,3.64 14.564,0 0,0.293 c -10.773,5.684 -14.564,9.028 -14.564,12.959 0,2.179 1.904,4.947 3.645,13.678 l 11.937,-4.81 c -1.311,-6.542 -4.078,-10.757 -4.078,-12.662 0,-3.335 3.06,-6.402 9.318,-9.458 l 24.166,0 c 10.48,0 11.645,2.621 11.505,14.561 l 3.631,0 0,-38.145 -3.631,0 c 0,6.696 -2.335,9.757 -10.919,9.757 l -32.612,0 -3.638,-9.757"
         id="path3034"
         style="fill:#005596;fill-opacity:1;fill-rule:nonzero;stroke:none" /><path
         d="M 278.987,686.661 C 269.67,682.156 268.939,681.13 268.8,673.999 l -3.645,0 0,34.066 3.645,0 c 0,-6.554 1.302,-8.438 4.076,-8.438 1.604,0 3.052,0.577 6.111,2.03 l 28.536,13.681 -22.71,10.196 c -5.093,2.328 -8.299,3.198 -10.48,3.198 -4.231,0 -5.533,-2.768 -5.533,-9.171 l -3.645,0 0,25.77 3.645,0 c 0.285,-5.817 2.759,-8.301 11.498,-12.229 l 59.544,-26.637 c 12.076,-5.391 17.609,-10.05 17.609,-16.155 0,-4.377 -3.198,-7.722 -7.422,-7.722 -9.314,0 -5.533,11.359 -11.212,17.039 -1.456,1.447 -3.635,3.628 -15.141,8.438 l -44.689,-21.404"
         id="path3036"
         style="fill:#005596;fill-opacity:1;fill-rule:nonzero;stroke:none" /></g></g></svg>